<svg width="21" height="21" viewBox="0 0 21 21" fill="none" xmlns="http://www.w3.org/2000/svg">
<path d="M19.7179 9.73003H11.5094V1.5215C11.5094 1.09649 11.1648 0.751953 10.7398 0.751953C10.3148 0.751953 9.97027 1.09649 9.97027 1.5215V9.73003H1.76174C1.33673 9.73003 0.992188 10.0746 0.992188 10.4996C0.992188 10.9246 1.33673 11.2691 1.76174 11.2691H9.97027V19.4777C9.97027 19.9027 10.3148 20.2472 10.7398 20.2472C11.1648 20.2472 11.5094 19.9027 11.5094 19.4777V11.2691H19.7179C20.1429 11.2691 20.4874 10.9246 20.4874 10.4996C20.4874 10.0746 20.1429 9.73003 19.7179 9.73003Z" fill="white" stroke="white"/>
</svg>
