<svg width="13" height="8" viewBox="0 0 13 8" fill="none" xmlns="http://www.w3.org/2000/svg">
<path d="M6.8479 0.417692C6.56735 0.417692 6.33469 0.520333 6.11572 0.7393L0.963149 6.0082C0.785238 6.18611 0.703125 6.39824 0.703125 6.65142C0.703125 7.16462 1.10685 7.58203 1.62005 7.58203C1.87323 7.58203 2.10588 7.47255 2.29064 7.28779L6.84105 2.60737L11.4052 7.28779C11.5899 7.47255 11.8157 7.58203 12.0757 7.58203C12.5889 7.58203 12.9995 7.16462 12.9995 6.65142C12.9995 6.39824 12.9106 6.18611 12.7326 6.0082L7.58007 0.7393C7.3611 0.51349 7.12845 0.417692 6.8479 0.417692Z" fill="#3C3C43" fill-opacity="0.3"/>
</svg>
