<svg width="13" height="8" viewBox="0 0 13 8" fill="none" xmlns="http://www.w3.org/2000/svg">
<path d="M6.85523 7.58231C7.13578 7.58231 7.36843 7.47967 7.5874 7.2607L12.74 1.9918C12.9179 1.81389 13 1.60176 13 1.34858C13 0.835375 12.5963 0.417969 12.0831 0.417969C11.8299 0.417969 11.5972 0.527452 11.4125 0.712206L6.86207 5.39263L2.29797 0.712206C2.11322 0.527452 1.88741 0.417969 1.62738 0.417969C1.11418 0.417969 0.703613 0.835375 0.703613 1.34858C0.703613 1.60176 0.792569 1.81389 0.97048 1.9918L6.12306 7.2607C6.34202 7.48651 6.57468 7.58231 6.85523 7.58231Z" fill="#3C3C43" fill-opacity="0.3"/>
</svg>
