<svg width="34" height="34" viewBox="0 0 34 34" fill="none" xmlns="http://www.w3.org/2000/svg">
<path d="M17.1665 18.092C17.0549 18.078 16.9421 18.078 16.8305 18.092C15.6432 18.052 14.518 17.5521 13.6925 16.6979C12.867 15.8436 12.4058 14.7019 12.4065 13.514C12.4065 10.98 14.4505 8.922 16.9985 8.922C18.2017 8.91991 19.3576 9.39073 20.2169 10.233C21.0761 11.0752 21.57 12.2214 21.5921 13.4244C21.6141 14.6274 21.1625 15.7909 20.3347 16.664C19.5068 17.5372 18.369 18.05 17.1665 18.092ZM26.4345 27.332C23.8617 29.6967 20.4929 31.0062 16.9985 31C13.3585 31 10.0545 29.614 7.5625 27.332C7.7025 26.016 8.5425 24.728 10.0405 23.72C13.8765 21.172 20.1485 21.172 23.9565 23.72C25.4545 24.728 26.2945 26.016 26.4345 27.332Z" stroke="black" stroke-width="1.68" stroke-linecap="round" stroke-linejoin="round"/>
<path d="M17 31C24.7322 31 31 24.7322 31 17C31 9.2678 24.7322 3 17 3C9.2678 3 3 9.2678 3 17C3 24.7322 9.2678 31 17 31Z" stroke="black" stroke-width="1.68" stroke-linecap="round" stroke-linejoin="round"/>
</svg>
