<svg width="35" height="35" viewBox="0 0 35 35" fill="none" xmlns="http://www.w3.org/2000/svg">
<path d="M32.0827 9.1146V16.5521C32.0827 18.4042 31.4702 19.9646 30.3764 21.0438C29.2973 22.1375 27.7368 22.75 25.8848 22.75V25.3896C25.8848 26.3813 24.7764 26.9792 23.9598 26.425L22.5452 25.4917C22.6764 25.0396 22.7348 24.5438 22.7348 24.0188V18.0834C22.7348 15.1084 20.7514 13.125 17.7764 13.125H7.87435C7.67018 13.125 7.4806 13.1396 7.29102 13.1542V9.1146C7.29102 5.39585 9.77018 2.91669 13.4889 2.91669H25.8848C29.6035 2.91669 32.0827 5.39585 32.0827 9.1146Z" stroke="#FF9A8C" opacity="0.5" stroke-width="1.57182" stroke-miterlimit="10" stroke-linecap="round" stroke-linejoin="round"/>
<path d="M22.7348 18.0833V24.0188C22.7348 24.5438 22.6764 25.0396 22.5452 25.4917C22.0056 27.6354 20.2264 28.9771 17.7764 28.9771H13.8098L9.4056 31.9083C9.25796 32.0094 9.08544 32.0681 8.9068 32.0779C8.72815 32.0878 8.55022 32.0485 8.39236 31.9643C8.23449 31.8801 8.10273 31.7542 8.0114 31.6004C7.92007 31.4465 7.87267 31.2706 7.87435 31.0917V28.9771C6.38685 28.9771 5.14727 28.4813 4.28685 27.6208C3.41185 26.7458 2.91602 25.5063 2.91602 24.0188V18.0833C2.91602 15.3125 4.63685 13.4021 7.29102 13.1542C7.4806 13.1396 7.67018 13.125 7.87435 13.125H17.7764C20.7514 13.125 22.7348 15.1083 22.7348 18.0833Z" stroke="#FF9A8C" opacity="0.5" stroke-width="1.57182" stroke-miterlimit="10" stroke-linecap="round" stroke-linejoin="round"/>
</svg>
