<svg width="26" height="24" viewBox="0 0 26 24" fill="none" xmlns="http://www.w3.org/2000/svg">
<path d="M10.3291 4.45962C11.2814 4.16968 12.325 4 13.4634 4C17.8325 4 20.8061 6.49956 22.5792 8.70433C23.4672 9.80853 23.9111 10.3606 23.9111 12C23.9111 13.6394 23.4672 14.1915 22.5792 15.2957C20.8061 17.5004 17.8325 20 13.4634 20C9.09425 20 6.12066 17.5004 4.3476 15.2957C3.45962 14.1915 3.01563 13.6394 3.01562 12C3.01562 10.3606 3.45962 9.80853 4.3476 8.70433C4.85037 8.07914 5.44967 7.43025 6.14995 6.82137" stroke="#C6C6C6" stroke-width="1.5" stroke-linecap="round"/>
<path d="M16.5968 12C16.5968 13.6569 15.1935 15 13.4625 15C11.7314 15 10.3281 13.6569 10.3281 12C10.3281 10.3431 11.7314 9 13.4625 9C15.1935 9 16.5968 10.3431 16.5968 12Z" stroke="#C6C6C6" stroke-width="1.5"/>
</svg>
