<svg width="61" height="61" viewBox="0 0 61 61" fill="none" xmlns="http://www.w3.org/2000/svg">
<path d="M7.10146 21.3739C9.76375 11.2981 11.0949 6.26026 15.0521 3.95719C19.0093 1.65413 24.0471 2.98527 34.1229 5.64756L39.626 7.10163C49.7017 9.76392 54.7396 11.0951 57.0426 15.0523C59.3457 19.0094 58.0146 24.0473 55.3523 34.123L53.8982 39.6262C51.2359 49.7019 49.9048 54.7397 45.9476 57.0428C41.9904 59.3459 36.9525 58.0147 26.8768 55.3524L21.3737 53.8984C11.298 51.2361 6.26009 49.9049 3.95703 45.9477C1.65396 41.9906 2.98511 36.9527 5.64739 26.877L7.10146 21.3739Z" fill="#FFA2B1"/>
<path fill-rule="evenodd" clip-rule="evenodd" d="M17.4143 17.1643C15.96 18.6529 14.8672 20.5022 14.313 21.7409C14.1753 22.0489 13.814 22.1868 13.506 22.0491C13.1981 21.9113 13.0602 21.55 13.1979 21.2421C13.7975 19.9019 14.9647 17.9236 16.5405 16.3106C18.106 14.7083 20.1736 13.3696 22.557 13.553C22.8934 13.5789 23.1451 13.8725 23.1192 14.2088C23.0933 14.5452 22.7997 14.7968 22.4634 14.771C20.612 14.6286 18.879 15.6652 17.4143 17.1643Z" fill="black"/>
<path fill-rule="evenodd" clip-rule="evenodd" d="M37.7809 14.3222C37.8049 13.9857 38.0972 13.7324 38.4336 13.7565C40.5406 13.907 45.0602 15.6513 47.1081 21.2829C47.2234 21.5999 47.0598 21.9504 46.7428 22.0657C46.4258 22.1809 46.0753 22.0174 45.96 21.7004C44.0988 16.5819 40.0402 15.0959 38.3466 14.9749C38.0101 14.9509 37.7568 14.6587 37.7809 14.3222Z" fill="black"/>
<path d="M29.6355 31.4678C24.2605 29.0246 18.0304 30.9928 15.5872 32.2822C14.5692 28.7532 14.3656 20.8807 22.1024 20.6771C29.7982 20.4746 30.3142 27.5316 29.6355 31.4678Z" fill="white"/>
<path fill-rule="evenodd" clip-rule="evenodd" d="M29.3805 24.354C30.4339 26.6896 30.3828 29.5307 30.0368 31.538L29.9471 32.0577L29.467 31.8395C26.8707 30.6593 24.0528 30.5386 21.5673 30.8796C19.0808 31.2208 16.9579 32.0202 15.7773 32.6433L15.3347 32.8769L15.196 32.396C14.6729 30.5827 14.3524 27.6447 15.1744 25.108C15.5879 23.8319 16.2958 22.6426 17.4267 21.76C18.5597 20.8758 20.0858 20.3238 22.0916 20.271C24.079 20.2187 25.6362 20.6349 26.8361 21.3791C28.0364 22.1235 28.8502 23.1781 29.3805 24.354ZM26.4069 22.0712C25.3669 21.4262 23.9736 21.0362 22.1131 21.0851C20.2505 21.1341 18.9008 21.6426 17.9278 22.402C16.9527 23.163 16.3245 24.2006 15.9491 25.3591C15.2596 27.4871 15.4406 29.9729 15.8534 31.6953C17.1572 31.0779 19.1611 30.3878 21.4566 30.0728C23.889 29.739 26.6763 29.8229 29.3128 30.8874C29.5647 29.0185 29.5148 26.6326 28.6382 24.6888C28.1623 23.6337 27.4466 22.716 26.4069 22.0712Z" fill="black"/>
<path d="M46.0418 31.5983C40.8825 28.7275 34.5134 30.1843 31.9738 31.2715C31.2451 27.6715 31.6802 19.8085 39.408 20.2326C47.0949 20.6544 47.0373 27.73 46.0418 31.5983Z" fill="white"/>
<path fill-rule="evenodd" clip-rule="evenodd" d="M46.3642 24.4866C47.2247 26.8999 46.9436 29.7276 46.436 31.7002L46.3046 32.2109L45.8437 31.9545C43.3516 30.5678 40.5527 30.2191 38.0477 30.3576C35.5418 30.4961 33.3611 31.1208 32.1338 31.6462L31.6738 31.8431L31.5745 31.3526C31.2001 29.5029 31.1188 26.5485 32.1436 24.0869C32.6592 22.8484 33.4612 21.7204 34.6599 20.9324C35.8608 20.1429 37.4267 19.7164 39.4302 19.8264C41.4152 19.9353 42.9335 20.4763 44.0692 21.3153C45.2052 22.1545 45.9309 23.2716 46.3642 24.4866ZM43.5853 21.9703C42.601 21.2432 41.2439 20.7415 39.3855 20.6395C37.5251 20.5374 36.1387 20.9348 35.1073 21.6129C34.0738 22.2923 33.3635 23.2756 32.8955 24.3999C32.0357 26.465 32.0147 28.9573 32.2866 30.7075C33.6361 30.1978 35.6893 29.6723 38.0028 29.5444C40.4542 29.4089 43.2256 29.7184 45.7671 30.9931C46.1697 29.1507 46.3133 26.7686 45.5971 24.7602C45.2083 23.67 44.5694 22.6973 43.5853 21.9703Z" fill="black"/>
<path d="M21.2887 28.618C21.2887 29.9673 20.1949 31.0612 18.8455 31.0612C17.4962 31.0612 16.4023 29.9673 16.4023 28.618C16.4023 27.2687 17.4962 26.1748 18.8455 26.1748C20.1949 26.1748 21.2887 27.2687 21.2887 28.618Z" fill="black"/>
<path d="M37.7582 28.1915C37.6489 29.5364 36.47 30.538 35.1251 30.4286C33.7802 30.3193 32.7786 29.1404 32.8879 27.7955C32.9973 26.4506 34.1762 25.449 35.5211 25.5584C36.866 25.6677 37.8676 26.8466 37.7582 28.1915Z" fill="black"/>
<path d="M18.4384 29.4326C18.4384 29.8823 18.0737 30.2469 17.624 30.2469C17.1742 30.2469 16.8096 29.8823 16.8096 29.4326C16.8096 28.9828 17.1742 28.6182 17.624 28.6182C18.0737 28.6182 18.4384 28.9828 18.4384 29.4326Z" fill="white"/>
<path d="M35.1941 28.7474C35.1577 29.1957 34.7647 29.5296 34.3164 29.4931C33.8681 29.4567 33.5343 29.0637 33.5707 28.6154C33.6072 28.1671 34.0001 27.8333 34.4484 27.8697C34.8967 27.9062 35.2306 28.2991 35.1941 28.7474Z" fill="white"/>
<path fill-rule="evenodd" clip-rule="evenodd" d="M43.3767 39.068C43.5649 39.348 43.4905 39.7275 43.2105 39.9156C32.988 46.7865 22.2104 42.774 18.0894 39.9103C17.8124 39.7178 17.7439 39.3372 17.9364 39.0602C18.1289 38.7831 18.5095 38.7146 18.7866 38.9071C22.6738 41.6084 32.8804 45.3869 42.5291 38.9018C42.809 38.7136 43.1885 38.788 43.3767 39.068Z" fill="black"/>
<path fill-rule="evenodd" clip-rule="evenodd" d="M17.9128 38.5736C17.319 39.0772 16.947 39.8144 16.7931 40.3376C16.7296 40.5533 16.5033 40.6768 16.2875 40.6133C16.0718 40.5499 15.9483 40.3235 16.0118 40.1078C16.1972 39.4773 16.6395 38.5856 17.3861 37.9525C18.1549 37.3005 19.2347 36.9371 20.6032 37.3932C20.8165 37.4643 20.9318 37.6949 20.8607 37.9083C20.7896 38.1216 20.559 38.2369 20.3456 38.1658C19.2709 37.8075 18.4844 38.0889 17.9128 38.5736Z" fill="black"/>
<path fill-rule="evenodd" clip-rule="evenodd" d="M40.8351 37.5463C40.8516 37.322 41.0468 37.1536 41.2711 37.1701C41.9959 37.2234 43.0658 37.4819 43.9255 38.1058C44.8087 38.7469 45.4645 39.7754 45.2828 41.2894C45.256 41.5127 45.0533 41.672 44.83 41.6452C44.6067 41.6184 44.4474 41.4157 44.4742 41.1924C44.6158 40.0124 44.1265 39.258 43.4471 38.765C42.7441 38.2548 41.8336 38.028 41.2113 37.9823C40.9871 37.9658 40.8186 37.7706 40.8351 37.5463Z" fill="black"/>
</svg>
