<svg width="15" height="15" viewBox="0 0 15 15" fill="none" xmlns="http://www.w3.org/2000/svg">
<path d="M7.16274 7.98909C7.39674 7.98909 7.62845 7.943 7.84464 7.85346C8.06083 7.76391 8.25726 7.63266 8.42272 7.46719C8.58818 7.30173 8.71944 7.1053 8.80899 6.88911C8.89853 6.67292 8.94462 6.44121 8.94462 6.20721C8.94462 5.97321 8.89853 5.7415 8.80899 5.52532C8.71944 5.30913 8.58818 5.11269 8.42272 4.94723C8.25726 4.78177 8.06083 4.65052 7.84464 4.56097C7.62845 4.47142 7.39674 4.42533 7.16274 4.42533C6.69016 4.42533 6.23693 4.61306 5.90276 4.94723C5.56859 5.2814 5.38086 5.73463 5.38086 6.20721C5.38086 6.6798 5.56859 7.13302 5.90276 7.46719C6.23693 7.80136 6.69016 7.98909 7.16274 7.98909Z" stroke="black" stroke-width="0.785284"/>
<path d="M2.37497 5.16778C3.50007 0.221915 10.8275 0.227626 11.9469 5.17349C12.6037 8.07476 10.7989 10.5306 9.21694 12.0497C8.66414 12.5829 7.92608 12.8808 7.15807 12.8808C6.39005 12.8808 5.65199 12.5829 5.09919 12.0497C3.52291 10.5306 1.71819 8.06905 2.37497 5.16778Z" stroke="black" stroke-width="0.785284"/>
</svg>
