<svg width="24" height="24" viewBox="0 0 24 24" fill="none" xmlns="http://www.w3.org/2000/svg">
<path d="M12.0206 2.91C8.71058 2.91 6.02058 5.6 6.02058 8.91V11.8C6.02058 12.41 5.76058 13.34 5.45058 13.86L4.30058 15.77C3.59058 16.95 4.08058 18.26 5.38058 18.7C9.69058 20.14 14.3406 20.14 18.6506 18.7C19.8606 18.3 20.3906 16.87 19.7306 15.77L18.5806 13.86C18.2806 13.34 18.0206 12.41 18.0206 11.8V8.91C18.0206 5.61 15.3206 2.91 12.0206 2.91Z" stroke="black" stroke-width="1.2" stroke-miterlimit="10" stroke-linecap="round"/>
<path d="M13.8699 3.19999C12.6606 2.85558 11.3792 2.85558 10.1699 3.19999C10.4599 2.45999 11.1799 1.93999 12.0199 1.93999C12.8599 1.93999 13.5799 2.45999 13.8699 3.19999Z" stroke="black" stroke-width="1.2" stroke-miterlimit="10" stroke-linecap="round" stroke-linejoin="round"/>
<path d="M15.0195 19.06C15.0195 20.71 13.6695 22.06 12.0195 22.06C11.1995 22.06 10.4395 21.72 9.89953 21.18C9.33769 20.6173 9.02132 19.8552 9.01953 19.06" stroke="black" stroke-width="1.2" stroke-miterlimit="10"/>
</svg>
