<svg width="35" height="35" viewBox="0 0 35 35" fill="none" xmlns="http://www.w3.org/2000/svg">
<path d="M20.416 11.6667H27.7077M21.8743 17.5H27.7077M24.791 23.3333H27.7077M24.791 30.625H10.2077C4.37435 30.625 2.91602 29.1667 2.91602 23.3333V11.6667C2.91602 5.83333 4.37435 4.375 10.2077 4.375H24.791C30.6243 4.375 32.0827 5.83333 32.0827 11.6667V23.3333C32.0827 29.1667 30.6243 30.625 24.791 30.625Z" stroke="black" stroke-width="1.57182" stroke-linecap="round" stroke-linejoin="round"/>
<path d="M17.4993 23.8146C17.4012 22.7909 16.9479 21.8338 16.2181 21.1093C15.4882 20.3848 14.5279 19.9386 13.5035 19.8479C12.7664 19.775 12.0239 19.775 11.2868 19.8479C10.2635 19.9413 9.30465 20.3885 8.57536 21.1124C7.84606 21.8364 7.3919 22.7919 7.29102 23.8146M12.3952 16.4646C13.0952 16.4646 13.7666 16.1865 14.2616 15.6915C14.7567 15.1965 15.0348 14.5251 15.0348 13.825C15.0348 13.1249 14.7567 12.4536 14.2616 11.9585C13.7666 11.4635 13.0952 11.1854 12.3952 11.1854C11.6951 11.1854 11.0237 11.4635 10.5287 11.9585C10.0337 12.4536 9.7556 13.1249 9.7556 13.825C9.7556 14.5251 10.0337 15.1965 10.5287 15.6915C11.0237 16.1865 11.6951 16.4646 12.3952 16.4646Z" stroke="black" stroke-width="1.57182" stroke-linecap="round" stroke-linejoin="round"/>
</svg>
