<svg width="27" height="27" viewBox="0 0 27 27" fill="none" xmlns="http://www.w3.org/2000/svg">
<path d="M13.6284 14.3385C13.5427 14.3277 13.4561 14.3277 13.3704 14.3385C12.4587 14.3078 11.5947 13.924 10.9608 13.268C10.327 12.6121 9.97289 11.7354 9.97341 10.8232C9.97341 8.8775 11.5429 7.29725 13.4994 7.29725C14.4233 7.29564 15.3108 7.65717 15.9706 8.30388C16.6305 8.95059 17.0097 9.83069 17.0266 10.7544C17.0435 11.6782 16.6968 12.5716 16.0611 13.242C15.4254 13.9125 14.5517 14.3063 13.6284 14.3385ZM20.7449 21.4335C18.7693 23.2493 16.1826 24.2548 13.4994 24.25C10.7044 24.25 8.16741 23.1857 6.25391 21.4335C6.36141 20.423 7.00641 19.434 8.15666 18.66C11.1022 16.7035 15.9182 16.7035 18.8422 18.66C19.9924 19.434 20.6374 20.423 20.7449 21.4335Z" stroke="black" stroke-width="1.29" stroke-linecap="round" stroke-linejoin="round"/>
<path d="M13.5 24.25C19.4372 24.25 24.25 19.4372 24.25 13.5C24.25 7.56278 19.4372 2.75 13.5 2.75C7.56278 2.75 2.75 7.56278 2.75 13.5C2.75 19.4372 7.56278 24.25 13.5 24.25Z" stroke="black" stroke-width="1.29" stroke-linecap="round" stroke-linejoin="round"/>
</svg>
