<svg width="26" height="26" viewBox="0 0 26 26" fill="none" xmlns="http://www.w3.org/2000/svg">
<path d="M13 16.25C13.862 16.25 14.6886 15.9076 15.2981 15.2981C15.9076 14.6886 16.25 13.862 16.25 13C16.25 12.138 15.9076 11.3114 15.2981 10.7019C14.6886 10.0924 13.862 9.75 13 9.75C12.138 9.75 11.3114 10.0924 10.7019 10.7019C10.0924 11.3114 9.75 12.138 9.75 13C9.75 13.862 10.0924 14.6886 10.7019 15.2981C11.3114 15.9076 12.138 16.25 13 16.25Z" stroke="black" stroke-width="1.625" stroke-miterlimit="10" stroke-linecap="round" stroke-linejoin="round"/>
<path d="M2.16602 13.9533V12.0467C2.16602 10.92 3.08685 9.98833 4.22435 9.98833C6.18518 9.98833 6.98685 8.60166 6.00102 6.90083C5.43768 5.92583 5.77352 4.65833 6.75935 4.095L8.63351 3.0225C9.48935 2.51333 10.5943 2.81666 11.1035 3.6725L11.2227 3.87833C12.1977 5.57916 13.801 5.57916 14.7868 3.87833L14.906 3.6725C15.4152 2.81666 16.5202 2.51333 17.376 3.0225L19.2502 4.095C20.236 4.65833 20.5718 5.92583 20.0085 6.90083C19.0227 8.60166 19.8243 9.98833 21.7852 9.98833C22.9118 9.98833 23.8435 10.9092 23.8435 12.0467V13.9533C23.8435 15.08 22.9227 16.0117 21.7852 16.0117C19.8243 16.0117 19.0227 17.3983 20.0085 19.0992C20.5718 20.085 20.236 21.3417 19.2502 21.905L17.376 22.9775C16.5202 23.4867 15.4152 23.1833 14.906 22.3275L14.7868 22.1217C13.8118 20.4208 12.2085 20.4208 11.2227 22.1217L11.1035 22.3275C10.5943 23.1833 9.48935 23.4867 8.63351 22.9775L6.75935 21.905C6.28712 21.6331 5.94206 21.185 5.79989 20.6589C5.65772 20.1329 5.73005 19.5719 6.00102 19.0992C6.98685 17.3983 6.18518 16.0117 4.22435 16.0117C3.08685 16.0117 2.16602 15.08 2.16602 13.9533Z" stroke="black" stroke-width="1.625" stroke-miterlimit="10" stroke-linecap="round" stroke-linejoin="round"/>
</svg>
