<svg width="15" height="14" viewBox="0 0 15 14" fill="none" xmlns="http://www.w3.org/2000/svg">
<g clip-path="url(#clip0_225_784)">
<path d="M5.32069 1.75022V3.41217M9.75256 1.75022V3.41217M2.82777 5.67795H12.2455M12.5225 5.3511V10.06C12.5225 11.7219 11.6915 12.8299 9.75256 12.8299H5.32069C3.38176 12.8299 2.55078 11.7219 2.55078 10.06V5.3511C2.55078 3.68916 3.38176 2.58119 5.32069 2.58119H9.75256C11.6915 2.58119 12.5225 3.68916 12.5225 5.3511Z" stroke="black" stroke-width="0.830974" stroke-miterlimit="10" stroke-linecap="round" stroke-linejoin="round"/>
<path d="M9.58245 8.23182H9.58743M9.58245 9.89377H9.58743M7.53271 8.23182H7.53825M7.53271 9.89377H7.53825M5.48242 8.23182H5.48796M5.48242 9.89377H5.48796" stroke="black" stroke-width="1.10797" stroke-linecap="round" stroke-linejoin="round"/>
</g>
<defs>
<clipPath id="clip0_225_784">
<rect width="13.2956" height="13.2956" fill="white" transform="translate(0.888672 0.64225)"/>
</clipPath>
</defs>
</svg>
