<svg width="22" height="22" viewBox="0 0 22 22" fill="none" xmlns="http://www.w3.org/2000/svg">
<path d="M19.25 5.48183C16.1975 5.17933 13.1267 5.0235 10.065 5.0235C8.25 5.0235 6.435 5.11516 4.62 5.2985L2.75 5.48183M7.79167 4.556L7.99333 3.35516C8.14 2.48433 8.25 1.8335 9.79917 1.8335H12.2008C13.75 1.8335 13.8692 2.521 14.0067 3.36433L14.2083 4.556M17.2792 8.3785L16.6833 17.6093C16.5825 19.0485 16.5 20.1668 13.9425 20.1668H8.0575C5.5 20.1668 5.4175 19.0485 5.31667 17.6093L4.72083 8.3785M9.46917 15.1252H12.5217M8.70833 11.4585H13.2917" stroke="#707070" stroke-width="1.5" stroke-linecap="round" stroke-linejoin="round"/>
</svg>
