<svg width="26" height="26" viewBox="0 0 26 26" fill="none" xmlns="http://www.w3.org/2000/svg">
<path d="M19.544 14.6792C19.089 15.1233 18.829 15.7625 18.894 16.445C18.9915 17.615 20.064 18.4708 21.234 18.4708H23.2923V19.76C23.2923 22.0025 21.4615 23.8333 19.219 23.8333H6.78232C4.53982 23.8333 2.70898 22.0025 2.70898 19.76V12.4692C2.70898 10.2267 4.53982 8.39583 6.78232 8.39583H19.219C21.4615 8.39583 23.2923 10.2267 23.2923 12.4692V14.0292H21.104C20.4973 14.0292 19.9448 14.2675 19.544 14.6792Z" stroke="black" stroke-width="1.625" stroke-linecap="round" stroke-linejoin="round"/>
<path d="M2.70898 13.4442V8.49333C2.70898 7.20417 3.49982 6.05583 4.70232 5.60083L13.304 2.35083C13.6156 2.23339 13.9512 2.19332 14.2817 2.23408C14.6123 2.27484 14.928 2.3952 15.2018 2.58483C15.4756 2.77447 15.6993 3.02771 15.8537 3.32283C16.008 3.61794 16.0885 3.94611 16.0882 4.27917V8.39583M7.58398 13H15.1673M24.4396 15.1342V17.3658C24.4396 17.9617 23.9629 18.4492 23.3562 18.4708H21.2329C20.0629 18.4708 18.9904 17.615 18.8929 16.445C18.8279 15.7625 19.0879 15.1233 19.5429 14.6792C19.9437 14.2675 20.4962 14.0292 21.1029 14.0292H23.3562C23.9629 14.0508 24.4396 14.5383 24.4396 15.1342Z" stroke="black" stroke-width="1.625" stroke-linecap="round" stroke-linejoin="round"/>
</svg>
